<?xml version="1.0" encoding="UTF-8"?>
<svg width="28px" height="28px" viewBox="0 0 28 28" version="1.1" xmlns="http://www.w3.org/2000/svg" xmlns:xlink="http://www.w3.org/1999/xlink">
    <!-- Generator: sketchtool 62 (101010) - https://sketch.com -->
    <title>E68890BB-A8F4-4F73-8B7F-3D669B6AEE14</title>
    <desc>Created with sketchtool.</desc>
    <g id="Desktop" stroke="none" stroke-width="1" fill="none" fill-rule="evenodd">
        <g id="01-trademark-landing-page-main" transform="translate(-1190.000000, -6249.000000)" fill="#F2ED66">
            <g id="call-us" transform="translate(1098.000000, 6230.000000)">
                <path d="M106,19 C113.731986,19 120,25.2680135 120,33 C120,40.7319865 113.731986,47 106,47 C98.2680135,47 92,40.7319865 92,33 C92,25.2680135 98.2680135,19 106,19 Z M102.26,25.5 L99.32,25.5 C99.0933333,25.5 98.9,25.58 98.74,25.74 C98.58,25.9 98.5,26.0933333 98.5,26.32 C98.5,28.24 98.8733333,30.08 99.62,31.84 C100.34,33.5333333 101.353333,35.0333333 102.66,36.34 C103.966667,37.6466667 105.466667,38.66 107.16,39.38 C108.92,40.1266667 110.76,40.5 112.68,40.5 C112.906667,40.5 113.1,40.42 113.26,40.26 C113.388,40.132 113.4648,39.9826667 113.4904,39.812 L113.5,39.68 L113.5,36.74 C113.5,36.5133333 113.42,36.32 113.26,36.16 C113.1,36 112.906667,35.92 112.68,35.92 C111.586667,35.92 110.6,35.7666667 109.72,35.46 C109.573333,35.3933333 109.42,35.38 109.26,35.42 C109.14,35.45 109.035,35.5025 108.945,35.5775 L108.86,35.66 L107.02,37.5 C105.846667,36.8866667 104.786667,36.1066667 103.84,35.16 C102.998519,34.3185185 102.288724,33.3874897 101.710617,32.3669136 L101.5,31.98 L103.34,30.14 C103.46,30.0333333 103.533333,29.9 103.56,29.74 C103.586667,29.58 103.58,29.4266667 103.54,29.28 C103.233333,28.4 103.08,27.4133333 103.08,26.32 C103.08,26.0933333 103,25.9 102.84,25.74 C102.712,25.612 102.562667,25.5352 102.392,25.5096 L102.26,25.5 Z" id="click-to-call-icon"></path>
            </g>
        </g>
    </g>
</svg>