<?xml version="1.0" encoding="UTF-8"?>
<svg width="155px" height="192px" viewBox="0 0 155 192" version="1.1" xmlns="http://www.w3.org/2000/svg" xmlns:xlink="http://www.w3.org/1999/xlink">
    <!-- Generator: sketchtool 62 (101010) - https://sketch.com -->
    <title>6E598B5E-D3CB-454E-9902-A54244A0B0BA</title>
    <desc>Created with sketchtool.</desc>
    <g id="Desktop" stroke="none" stroke-width="1" fill="none" fill-rule="evenodd">
        <g id="tmx-contactus-nav" transform="translate(-883.000000, -30.000000)" fill="#0D1B23">
            <path d="M919.961247,214.855754 L921.995394,209.197896 L924.029541,214.855754 L919.961247,214.855754 Z M919.650142,205.218215 L913.224631,222 L917.400615,222 L918.668965,218.475825 L925.321822,218.475825 L926.590173,222 L930.849916,222 L924.424405,205.218215 L919.650142,205.218215 Z M954.72043,218.391916 L963.551021,218.391916 L963.551021,222 L950.72393,222 L950.72393,205.218215 L963.503159,205.218215 L963.503159,208.826299 L954.72043,208.826299 L954.72043,211.72715 L962.988639,211.72715 L962.988639,215.323247 L954.72043,215.323247 L954.72043,218.391916 Z M943.921902,215.485071 C943.734442,216.056451 943.449661,216.549916 943.066364,216.965465 C942.683466,217.381014 942.202849,217.70666 941.624513,217.942404 C941.046177,218.178148 940.370122,218.29602 939.596349,218.29602 L936.509232,218.29602 L936.509232,208.921795 L939.596349,208.921795 C940.370122,208.921795 941.046177,209.038069 941.624513,209.269818 C942.202849,209.501966 942.683466,209.823217 943.066364,210.23477 C943.449661,210.646323 943.734442,211.139788 943.921902,211.715163 C944.109363,212.290539 944.203093,212.921854 944.203093,213.609108 C944.203093,214.28837 944.109363,214.914091 943.921902,215.485071 L943.921902,215.485071 Z M945.992345,207.513724 C945.230138,206.782517 944.314772,206.217131 943.245847,205.817565 C942.176923,205.417998 940.988343,205.218215 939.680108,205.218215 L932.512731,205.218215 L932.512731,222 L939.680108,222 C940.988343,222 942.176923,221.800217 943.245847,221.400651 C944.314772,221.001084 945.230138,220.435698 945.992345,219.704492 C946.753754,218.973285 947.342061,218.090244 947.756867,217.055367 C948.171674,216.02049 948.379077,214.871737 948.379077,213.609108 C948.379077,212.346478 948.171674,211.197725 947.756867,210.162848 C947.342061,209.127972 946.753754,208.24493 945.992345,207.513724 L945.992345,207.513724 Z M979.548988,205.218215 L985.220668,205.218215 L985.220668,222 L981.224567,222 L981.224567,210.516464 L977.873808,220.417717 L973.62643,220.417717 L970.275671,210.552026 L970.275671,222 L966.279171,222 L966.279171,205.218215 L971.938886,205.218215 L975.756301,215.874649 L979.548988,205.218215 Z M1038,222 L1032.97446,222 L1027.69764,215.359208 L1026.28571,215.359208 L1026.28571,222 L1022.28921,222 L1022.28921,205.218215 L1026.28571,205.218215 L1026.28571,211.750725 L1027.73354,211.750725 L1032.5437,205.218215 L1037.46155,205.218215 L1030.96424,213.405329 L1038,222 Z M1013.41115,212.350074 L1010.16848,212.350074 L1010.16848,208.850273 L1013.41115,208.850273 C1013.76214,208.850273 1014.08122,208.884636 1014.3684,208.952162 C1014.65557,209.020488 1014.90087,209.125974 1015.10428,209.269818 C1015.3077,209.413661 1015.46325,209.595464 1015.57094,209.815226 C1015.67823,210.035387 1015.73247,210.292707 1015.73247,210.588386 C1015.73247,211.187736 1015.52706,211.631254 1015.11625,211.918543 C1014.70543,212.20663 1014.13666,212.350074 1013.41115,212.350074 L1013.41115,212.350074 Z M1017.12048,214.987611 C1017.7028,214.699924 1018.1914,214.340314 1018.58586,213.908782 C1018.98113,213.477251 1019.28226,212.981789 1019.48966,212.422396 C1019.69707,211.863003 1019.80077,211.251666 1019.80077,210.588386 C1019.80077,209.76528 1019.66516,209.022086 1019.39394,208.358806 C1019.12272,207.695526 1018.71948,207.13014 1018.18541,206.662647 C1017.65095,206.195155 1016.98886,205.837543 1016.19913,205.589812 C1015.4094,205.342081 1014.49603,205.218215 1013.45901,205.218215 L1006.17158,205.218215 L1006.17158,222 L1010.16848,222 L1010.16848,215.718818 L1010.7548,215.718818 L1015.17009,222 L1019.93199,222 L1015.12223,215.598948 C1015.87207,215.479078 1016.53815,215.275299 1017.12048,214.987611 L1017.12048,214.987611 Z M993.620498,214.855754 L995.654246,209.197896 L997.688792,214.855754 L993.620498,214.855754 Z M993.308995,205.218215 L986.883883,222 L991.059866,222 L992.327818,218.475825 L998.981074,218.475825 L1000.24942,222 L1004.50917,222 L998.083656,205.218215 L993.308995,205.218215 Z M883,205.218215 L896.915958,205.218215 L896.915958,208.934182 L891.962212,208.934182 L891.962212,222 L887.965712,222 L887.965712,208.934182 L883,208.934182 L883,205.218215 Z M922.199207,92.7343071 L932.156556,92.7343071 L932.156556,95.2595662 L928.552925,95.2595662 L928.552925,103.377155 L925.815602,103.377155 L925.815602,95.2595662 L922.199207,95.2595662 L922.199207,92.7343071 Z M929.49661,65.7691755 C932.663896,62.5962195 937.79912,62.5962195 940.966007,65.7691755 L960.464303,85.3023739 L979.962997,65.7691755 C983.129884,62.5962195 988.264709,62.5962195 991.431996,65.7691755 C994.599681,68.9421316 994.599681,74.0861482 991.431996,77.2595037 L971.934099,96.7923025 L991.431996,116.325501 C994.599681,119.498856 994.599681,124.642873 991.431996,127.815829 C988.264709,130.988386 983.129884,130.988386 979.962997,127.815829 L960.464303,108.282631 L940.966007,127.815829 C937.79912,130.988386 932.663896,130.988386 929.49661,127.815829 C926.329323,124.642873 926.329323,119.498856 929.49661,116.325501 L948.994905,96.7923025 L929.49661,77.2595037 C926.329323,74.0861482 926.329323,68.9421316 929.49661,65.7691755 L929.49661,65.7691755 Z M994.687428,99.3343433 L995.049187,98.4712801 L997.528852,92.7343071 L1001.14445,92.7343071 L1001.14445,103.377155 L998.406726,103.377155 L998.406726,96.298039 L997.902976,97.4803557 L995.255394,103.377155 L993.705853,103.377155 L991.071034,97.4803557 L990.567284,96.298039 L990.567284,103.377155 L988.04893,103.377155 L988.04893,92.7343071 L991.820079,92.7343071 L994.325271,98.4712801 L994.687428,99.3343433 Z M960.464303,163.585005 C997.286749,163.585005 1027.13726,133.680663 1027.13726,96.7923025 C1027.13726,59.9039418 997.286749,30 960.464303,30 C923.642255,30 893.791349,59.9039418 893.791349,96.7923025 C893.791349,133.680663 923.642255,163.585005 960.464303,163.585005 L960.464303,163.585005 Z M905.973894,212.350074 L902.731225,212.350074 L902.731225,208.850273 L905.973894,208.850273 C906.324885,208.850273 906.643568,208.884636 906.93114,208.952162 C907.218314,209.020488 907.463608,209.125974 907.667023,209.269818 C907.870437,209.413661 908.02599,209.595464 908.13368,209.815226 C908.240971,210.035387 908.295215,210.292707 908.295215,210.588386 C908.295215,211.187736 908.089407,211.631254 907.678988,211.918543 C907.26817,212.20663 906.699407,212.350074 905.973894,212.350074 L905.973894,212.350074 Z M909.682822,214.987611 C910.265147,214.699924 910.75414,214.340314 911.148605,213.908782 C911.543867,213.477251 911.844602,212.981789 912.052404,212.422396 C912.259408,211.863003 912.363509,211.251666 912.363509,210.588386 C912.363509,209.76528 912.2275,209.022086 911.956679,208.358806 C911.68546,207.695526 911.28222,207.13014 910.747758,206.662647 C910.213695,206.195155 909.551201,205.837543 908.761872,205.589812 C907.971746,205.342081 907.058374,205.218215 906.021757,205.218215 L898.734326,205.218215 L898.734326,222 L902.731225,222 L902.731225,215.718818 L903.317538,215.718818 L907.732833,222 L912.494731,222 L907.684971,215.598948 C908.434813,215.479078 909.100897,215.275299 909.682822,214.987611 L909.682822,214.987611 Z" id="Fill-1-Copy"></path>
        </g>
    </g>
</svg>