<?xml version="1.0" encoding="UTF-8"?>
<svg width="42px" height="42px" viewBox="0 0 42 42" version="1.1" xmlns="http://www.w3.org/2000/svg" xmlns:xlink="http://www.w3.org/1999/xlink">
    <!-- Generator: Sketch 63.1 (92452) - https://sketch.com -->
    <title>scroll-arrow</title>
    <desc>Created with Sketch.</desc>
    <g id="case-study-desktop" stroke="none" stroke-width="1" fill="none" fill-rule="evenodd">
        <g id="case-study-/-slack-/-closed-nav" transform="translate(-1212.000000, -1151.000000)" fill="#66BFF2">
            <g id="Group-2" transform="translate(1212.000000, 817.000000)">
                <path d="M21,334 C32.5979797,334 42,343.40202 42,355 C42,366.59798 32.5979797,376 21,376 C9.40202025,376 0,366.59798 0,355 C0,343.40202 9.40202025,334 21,334 Z M27.3740244,352.128907 C27.2021485,351.957031 27.0302752,351.957031 26.8583994,352.128907 L26.8583994,352.128907 L21.2509774,357.510743 L15.6435554,352.128907 C15.4716795,351.957031 15.2998062,351.957031 15.1279304,352.128907 L15.1279304,352.128907 L14.1289069,353.095704 C13.957031,353.26758 13.957031,353.439453 14.1289069,353.611329 L14.1289069,353.611329 L20.9931649,360.185548 C21.0576183,360.250001 21.1435549,360.282227 21.2509774,360.282227 C21.3583998,360.282227 21.4443364,360.250001 21.5087899,360.185548 L21.5087899,360.185548 L28.3730478,353.611329 C28.5449237,353.439453 28.5449237,353.26758 28.3730478,353.095704 L28.3730478,353.095704 Z" id="scroll-arrow"></path>
            </g>
        </g>
    </g>
</svg>