<?xml version="1.0" encoding="UTF-8"?>
<svg width="337px" height="108px" viewBox="0 0 337 108" version="1.1" xmlns="http://www.w3.org/2000/svg" xmlns:xlink="http://www.w3.org/1999/xlink">
    <!-- Generator: sketchtool 63.1 (101010) - https://sketch.com -->
    <title>D03D1585-E28B-4992-9B5C-46DF95939C74</title>
    <desc>Created with sketchtool.</desc>
    <g id="case-study-desktop" stroke="none" stroke-width="1" fill="none" fill-rule="evenodd">
        <g id="case-study-/-slack-/-closed-nav" transform="translate(-732.000000, -2642.000000)" fill="#FFC709">
            <g id="Infograph-/-Slack" transform="translate(0.000000, 1896.000000)">
                <g id="Group-5-Copy-5" transform="translate(732.000000, 695.000000)">
                    <path d="M297,105 L297,88 L313.816143,88 L327,105 L297,105 Z M304,146 C300.136,146 297,142.871 297,139 C297,135.129 300.136,132 304,132 C307.864,132 311,135.129 311,139 C311,142.871 307.864,146 304,146 L304,146 Z M223,146 C219.136,146 216,142.871 216,139 C216,135.129 219.136,132 223,132 C226.864,132 230,135.129 230,139 C230,142.871 226.864,146 223,146 L223,146 Z M79,146 C75.136,146 72,142.871 72,139 C72,135.129 75.136,132 79,132 C82.864,132 86,135.129 86,139 C86,142.871 82.864,146 79,146 L79,146 Z M33,146 C29.136,146 26,142.871 26,139 C26,135.129 29.136,132 33,132 C36.871,132 40,135.129 40,139 C40,142.871 36.871,146 33,146 L33,146 Z M337,104.647234 L316.824386,77.877372 L289.183796,77.877372 L289.183796,124.959808 C287.825304,126.384309 286.715646,128.023829 285.821193,129.797735 L285.821193,64.438686 L279.095989,64.438686 L279.095989,131.632116 L275.733387,131.632116 L275.733387,51 L14.9434045,51 C6.69157853,51 0,57.6857463 0,65.9303801 L0,131.632116 L14.4860906,131.632116 C13.6252644,133.876377 13.0939733,136.29534 13.0939733,138.841971 C13.0939733,149.975922 22.1326482,159 33.2695869,159 C44.4199761,159 53.4452006,149.975922 53.4452006,138.841971 C53.4452006,136.29534 52.9273598,133.876377 52.0598084,131.632116 L59.5046099,131.632116 C58.6437837,133.876377 58.1192177,136.29534 58.1192177,138.841971 C58.1192177,149.975922 67.1511674,159 78.2948314,159 C89.4384953,159 98.470445,149.975922 98.470445,138.841971 C98.470445,136.29534 97.9458791,133.876377 97.0850529,131.632116 L188.305727,131.632116 L188.305727,138.351459 L202.926322,138.351459 C202.926322,138.519443 202.879246,138.667268 202.879246,138.841971 C202.879246,149.975922 211.911195,159 223.054859,159 C234.198523,159 243.230473,149.975922 243.230473,138.841971 C243.230473,138.667268 243.190122,138.519443 243.183397,138.351459 L283.628777,138.351459 C283.628777,138.519443 283.5817,138.667268 283.5817,138.841971 C283.5817,149.975922 292.61365,159 303.757314,159 C314.900978,159 323.932928,149.975922 323.932928,138.841971 C323.932928,138.640391 323.879126,138.44553 323.872401,138.243949 L337,138.243949 L337,104.647234 Z" id="truck"></path>
                </g>
            </g>
        </g>
    </g>
</svg>