<?xml version="1.0" encoding="UTF-8"?>
<svg width="28px" height="28px" viewBox="0 0 28 28" version="1.1" xmlns="http://www.w3.org/2000/svg" xmlns:xlink="http://www.w3.org/1999/xlink">
    <!-- Generator: sketchtool 62 (101010) - https://sketch.com -->
    <title>58D03AFA-1E83-4D21-9F94-E470366499AC</title>
    <desc>Created with sketchtool.</desc>
    <g id="Desktop" stroke="none" stroke-width="1" fill="none" fill-rule="evenodd">
        <g id="sitemap-desktop-nav" transform="translate(-1593.000000, -2094.000000)" fill="#FFFFFF">
            <g id="footer-copy-2-footer" transform="translate(0.000000, 1826.000000)">
                <g id="Group-16-Copy" transform="translate(1474.000000, 268.000000)">
                    <path d="M134.051562,20.9717603 L134.051562,14.4033602 L136.256362,14.4033602 L136.586362,11.8437602 L134.051562,11.8437602 L134.051562,10.2093602 C134.051562,9.46816014 134.257562,8.96296013 135.320362,8.96296013 L136.675962,8.96256013 L136.675962,6.6725601 C136.441162,6.6417601 135.636762,6.5717601 134.700362,6.5717601 C132.745962,6.5717601 131.407962,7.76496012 131.407962,9.95576015 L131.407962,11.8437602 L129.197562,11.8437602 L129.197562,14.4033602 L131.407962,14.4033602 L131.407962,20.9717603 L134.051562,20.9717603 Z M146.708762,13.7717602 C146.708762,21.3781603 140.542762,27.5441604 132.936762,27.5441604 C125.330362,27.5441604 119.164362,21.3781603 119.164362,13.7717602 C119.164362,6.16576009 125.330362,0.000160000002 132.936762,0.000160000002 C140.542762,0.000160000002 146.708762,6.16576009 146.708762,13.7717602 L146.708762,13.7717602 Z" id="Fill-11"></path>
                </g>
            </g>
        </g>
    </g>
</svg>