<?xml version="1.0" encoding="UTF-8"?>
<svg width="29px" height="28px" viewBox="0 0 29 28" version="1.1" xmlns="http://www.w3.org/2000/svg" xmlns:xlink="http://www.w3.org/1999/xlink">
    <!-- Generator: sketchtool 62 (101010) - https://sketch.com -->
    <title>374113A2-006D-4F79-BBC3-C9F1B28F36AC</title>
    <desc>Created with sketchtool.</desc>
    <g id="Desktop" stroke="none" stroke-width="1" fill="none" fill-rule="evenodd">
        <g id="sitemap-desktop-nav" transform="translate(-1652.000000, -2094.000000)" fill="#FFFFFF">
            <g id="footer-copy-2-footer" transform="translate(0.000000, 1826.000000)">
                <g id="Group-16-Copy" transform="translate(1474.000000, 268.000000)">
                    <path d="M192.518603,-4.00000006e-05 C200.125003,-4.00000006e-05 206.290603,6.16596009 206.290603,13.7719602 C206.290603,21.3779603 200.125003,27.5439604 192.518603,27.5439604 C184.913003,27.5439604 178.747003,21.3779603 178.747003,13.7719602 C178.747003,6.16596009 184.913003,-4.00000006e-05 192.518603,-4.00000006e-05 Z M195.225803,7.21876011 L189.743403,7.21876011 C187.556203,7.21876011 185.776603,8.99796013 185.776603,11.1851602 L185.776603,11.1851602 L185.776603,16.9135603 C185.776603,19.1007603 187.556203,20.8799603 189.743403,20.8799603 L189.743403,20.8799603 L195.225803,20.8799603 C197.413003,20.8799603 199.192203,19.1007603 199.192203,16.9135603 L199.192203,16.9135603 L199.192203,11.1851602 C199.192203,8.99796013 197.413003,7.21876011 195.225803,7.21876011 L195.225803,7.21876011 Z M195.225763,8.22032012 C196.860963,8.22032012 198.190963,9.55032014 198.190963,11.1851202 L198.190963,11.1851202 L198.190963,16.9135203 C198.190963,18.5487203 196.860963,19.8787203 195.225763,19.8787203 L195.225763,19.8787203 L189.743363,19.8787203 C188.108163,19.8787203 186.778163,18.5487203 186.778163,16.9135203 L186.778163,16.9135203 L186.778163,11.1851202 C186.778163,9.55032014 188.108163,8.22032012 189.743363,8.22032012 L189.743363,8.22032012 Z M192.516163,10.4007202 C190.505763,10.4007202 188.876163,12.0303202 188.876163,14.0403202 C188.876163,16.0503202 190.505763,17.6799203 192.516163,17.6799203 C194.526163,17.6799203 196.155363,16.0503202 196.155363,14.0403202 C196.155363,12.0303202 194.526163,10.4007202 192.516163,10.4007202 Z M196.242563,9.45032014 C195.773763,9.45032014 195.393763,9.83032015 195.393763,10.2991202 C195.393763,10.7679202 195.773763,11.1479202 196.242563,11.1479202 C196.711363,11.1479202 197.091363,10.7679202 197.091363,10.2991202 C197.091363,9.83032015 196.711363,9.45032014 196.242563,9.45032014 Z M192.516003,11.6270002 C191.183203,11.6270002 190.102403,12.7074002 190.102403,14.0402002 C190.102403,15.3734002 191.183203,16.4538002 192.516003,16.4538002 C193.848803,16.4538002 194.929203,15.3734002 194.929203,14.0402002 C194.929203,12.7074002 193.848803,11.6270002 192.516003,11.6270002" id="Fill-8"></path>
                </g>
            </g>
        </g>
    </g>
</svg>