<?xml version="1.0" encoding="UTF-8"?>
<svg width="28px" height="28px" viewBox="0 0 28 28" version="1.1" xmlns="http://www.w3.org/2000/svg" xmlns:xlink="http://www.w3.org/1999/xlink">
    <!-- Generator: sketchtool 62 (101010) - https://sketch.com -->
    <title>32ADF882-636D-45F3-929E-1038B8D1188B</title>
    <desc>Created with sketchtool.</desc>
    <g id="Desktop" stroke="none" stroke-width="1" fill="none" fill-rule="evenodd">
        <g id="sitemap-desktop-nav" transform="translate(-1474.000000, -2094.000000)" fill="#FFFFFF">
            <g id="footer-copy-2-footer" transform="translate(0.000000, 1826.000000)">
                <g id="Group-16-Copy" transform="translate(1474.000000, 268.000000)">
                    <path d="M20.9867203,13.9948002 C20.9867203,11.5472002 20.4583203,9.66600014 17.5983203,9.66600014 C16.2247202,9.66600014 15.3027202,10.4192002 14.9263202,11.1336002 L14.8875202,11.1336002 L14.8875202,9.89120015 L12.1803202,9.89120015 L12.1803202,18.9788003 L15.0011202,18.9788003 L15.0011202,14.4840002 C15.0011202,13.2984002 15.2255202,12.1500002 16.6951202,12.1500002 C18.1447203,12.1500002 18.1623203,13.5056002 18.1623203,14.5596002 L18.1623203,18.9788003 L20.9867203,18.9788003 L20.9867203,13.9948002 Z M10.6327202,7.0116001 C10.6327202,6.10760009 9.89912015,5.37400008 8.99552013,5.37400008 C8.08872012,5.37400008 7.35712011,6.10760009 7.35712011,7.0116001 C7.35712011,7.91600012 8.08872012,8.64960013 8.99552013,8.64960013 C9.89912015,8.64960013 10.6327202,7.91600012 10.6327202,7.0116001 L10.6327202,7.0116001 Z M7.58152011,18.9788003 L10.4087202,18.9788003 L10.4087202,9.89120015 L7.58152011,9.89120015 L7.58152011,18.9788003 Z M27.5439204,13.7720002 C27.5439204,21.3780003 21.3779203,27.5440004 13.7719202,27.5440004 C6.16592009,27.5440004 -8.00000014e-05,21.3780003 -8.00000014e-05,13.7720002 C-8.00000014e-05,6.16600009 6.16592009,0 13.7719202,0 C21.3779203,0 27.5439204,6.16600009 27.5439204,13.7720002 L27.5439204,13.7720002 Z" id="Fill-1"></path>
                </g>
            </g>
        </g>
    </g>
</svg>