<?xml version="1.0" encoding="UTF-8"?>
<svg width="134px" height="134px" viewBox="0 0 134 134" version="1.1" xmlns="http://www.w3.org/2000/svg" xmlns:xlink="http://www.w3.org/1999/xlink">
    <!-- Generator: sketchtool 62 (101010) - https://sketch.com -->
    <title>E9F88825-E70C-4F30-B47C-6BE24D1FE9C9</title>
    <desc>Created with sketchtool.</desc>
    <g id="Desktop" stroke="none" stroke-width="1" fill="none" fill-rule="evenodd">
        <g id="01-trademark-landing-page-main" transform="translate(-893.000000, -30.000000)" fill="#0D1B23">
            <path d="M1000.88001,103.60551 L1000.88001,92.9295984 L997.246672,92.9295984 L994.754836,98.6843939 L994.391301,99.5501383 L994.027366,98.6843939 L991.509878,92.9295984 L987.72022,92.9295984 L987.72022,103.60551 L990.250934,103.60551 L990.250934,96.5044014 L990.757157,97.6903911 L993.404908,103.60551 L994.962055,103.60551 L997.622631,97.6903911 L998.128854,96.5044014 L998.128854,103.60551 L1000.88001,103.60551 Z M931.553112,95.4623017 L931.553112,92.9291976 L921.54689,92.9291976 L921.54689,95.4623017 L925.181035,95.4623017 L925.181035,103.605109 L927.932194,103.605109 L927.932194,95.4623017 L931.553112,95.4623017 Z M971.525893,97.0002004 L991.119489,77.4063202 C994.302722,74.2231063 994.302722,69.0631092 991.119489,65.8802961 C987.937058,62.6978838 982.776629,62.6978838 979.594198,65.8802961 L960.0002,85.4741763 L940.405802,65.8802961 C937.223371,62.6978838 932.062942,62.6978838 928.88011,65.8802961 C925.697278,69.0631092 925.697278,74.2231063 928.88011,77.4063202 L948.474107,97.0002004 L928.88011,116.59368 C925.697278,119.776894 925.697278,124.936891 928.88011,128.119704 C932.062942,131.302517 937.223371,131.302517 940.405802,128.119704 L960.0002,108.525824 L979.594198,128.119704 C982.776629,131.302517 987.937058,131.302517 991.119489,128.119704 C994.302722,124.936891 994.302722,119.776894 991.119489,116.59368 L971.525893,97.0002004 Z M1027,97.0002004 C1027,134.003159 997.002979,164 960.0002,164 C922.997021,164 893,134.003159 893,97.0002004 C893,59.9968414 922.997021,30 960.0002,30 C997.002979,30 1027,59.9968414 1027,97.0002004 L1027,97.0002004 Z" id="Fill-1"></path>
        </g>
    </g>
</svg>