<?xml version="1.0" encoding="UTF-8"?>
<svg width="29px" height="28px" viewBox="0 0 29 28" version="1.1" xmlns="http://www.w3.org/2000/svg" xmlns:xlink="http://www.w3.org/1999/xlink">
    <!-- Generator: sketchtool 62 (101010) - https://sketch.com -->
    <title>F19606A3-CC95-44A5-A18D-18CCA07D8B05</title>
    <desc>Created with sketchtool.</desc>
    <g id="Desktop" stroke="none" stroke-width="1" fill="none" fill-rule="evenodd">
        <g id="sitemap-desktop-nav" transform="translate(-1533.000000, -2094.000000)" fill="#FFFFFF">
            <g id="footer-copy-2-footer" transform="translate(0.000000, 1826.000000)">
                <g id="Group-16-Copy" transform="translate(1474.000000, 268.000000)">
                    <path d="M70.7445211,19.8346403 C76.0533211,19.8346403 78.9565212,15.4362402 78.9565212,11.6222402 C78.9565212,11.4974402 78.9541212,11.3730402 78.9485212,11.2490402 C79.5121212,10.8418402 80.0021212,10.3334402 80.3881212,9.75464015 C79.8709212,9.98464015 79.3149212,10.1394402 78.7309212,10.2090402 C79.3265212,9.85184015 79.7845212,9.28624014 80.0001212,8.61224013 C79.4421212,8.94304013 78.8245212,9.18384014 78.1673212,9.31304014 C77.6405212,8.75184013 76.8905211,8.40104013 76.0605211,8.40104013 C74.4665211,8.40104013 73.1737211,9.69384014 73.1737211,11.2870402 C73.1737211,11.5138402 73.1993211,11.7342402 73.2485211,11.9454402 C70.8497211,11.8250402 68.722521,10.6762402 67.299321,8.92984013 C67.051321,9.35624014 66.908121,9.85184015 66.908121,10.3806402 C66.908121,11.3818402 67.418121,12.2658402 68.192521,12.7830402 C67.719321,12.7682402 67.274521,12.6382402 66.885721,12.4218402 C66.884921,12.4342402 66.884921,12.4458402 66.884921,12.4586402 C66.884921,13.8566402 67.879721,15.0238402 69.200521,15.2882402 C68.958121,15.3542402 68.702921,15.3898402 68.439321,15.3898402 C68.253321,15.3898402 68.072521,15.3714402 67.896921,15.3378402 C68.264521,16.4846402 69.330121,17.3190403 70.5933211,17.3426403 C69.605321,18.1166403 68.360921,18.5778403 67.008521,18.5778403 C66.775721,18.5778403 66.546121,18.5646403 66.319721,18.5382403 C67.597721,19.3570403 69.114121,19.8346403 70.7445211,19.8346403 M87.1261213,13.7718402 C87.1261213,21.3778403 80.9601212,27.5438404 73.3541211,27.5438404 C65.748121,27.5438404 59.5825209,21.3778403 59.5825209,13.7718402 C59.5825209,6.16584009 65.748121,0.000240000004 73.3541211,0.000240000004 C80.9601212,0.000240000004 87.1261213,6.16584009 87.1261213,13.7718402" id="Fill-14"></path>
                </g>
            </g>
        </g>
    </g>
</svg>