<?xml version="1.0" encoding="UTF-8"?>
<svg width="134px" height="134px" viewBox="0 0 134 134" version="1.1" xmlns="http://www.w3.org/2000/svg" xmlns:xlink="http://www.w3.org/1999/xlink">
    <!-- Generator: sketchtool 63.1 (101010) - https://sketch.com -->
    <title>56DAB061-BD16-4CC5-88FB-FB6E9B31C375</title>
    <desc>Created with sketchtool.</desc>
    <g id="Home-desktop" stroke="none" stroke-width="1" fill="none" fill-rule="evenodd">
        <g id="Privacy-desktop" transform="translate(-893.000000, -30.000000)" fill="#FFFFFF">
            <g id="trademark-logo-/-white" transform="translate(893.000000, 30.000000)">
                <path d="M107.880014,73.6055096 L107.880014,62.9295984 L104.246672,62.9295984 L101.754836,68.6843939 L101.391301,69.5501383 L101.027366,68.6843939 L98.5098782,62.9295984 L94.7202197,62.9295984 L94.7202197,73.6055096 L97.250934,73.6055096 L97.250934,66.5044014 L97.757157,67.6903911 L100.404908,73.6055096 L101.962055,73.6055096 L104.622631,67.6903911 L105.128854,66.5044014 L105.128854,73.6055096 L107.880014,73.6055096 Z M38.5531118,65.4623017 L38.5531118,62.9291976 L28.5468903,62.9291976 L28.5468903,65.4623017 L32.1810345,65.4623017 L32.1810345,73.6051088 L34.9321943,73.6051088 L34.9321943,65.4623017 L38.5531118,65.4623017 Z M78.5258926,67.0002004 L98.1194892,47.4063202 C101.302722,44.2231063 101.302722,39.0631092 98.1194892,35.8802961 C94.9370579,32.6978838 89.7766292,32.6978838 86.5941978,35.8802961 L67.0002004,55.4741763 L47.4058022,35.8802961 C44.2233708,32.6978838 39.0629421,32.6978838 35.88011,35.8802961 C32.6972778,39.0631092 32.6972778,44.2231063 35.88011,47.4063202 L55.4741074,67.0002004 L35.88011,86.5936798 C32.6972778,89.7768937 32.6972778,94.9368908 35.88011,98.1197039 C39.0629421,101.302517 44.2233708,101.302517 47.4058022,98.1197039 L67.0002004,78.5258237 L86.5941978,98.1197039 C89.7766292,101.302517 94.9370579,101.302517 98.1194892,98.1197039 C101.302722,94.9368908 101.302722,89.7768937 98.1194892,86.5936798 L78.5258926,67.0002004 Z M134,67.0002004 C134,104.003159 104.002979,134 67.0002004,134 C29.9970208,134 0,104.003159 0,67.0002004 C0,29.9968414 29.9970208,0 67.0002004,0 C104.002979,0 134,29.9968414 134,67.0002004 L134,67.0002004 Z"></path>
            </g>
        </g>
    </g>
</svg>